# Blender 4.2.1 LTS
# www.blender.org
mtllib torus.mtl
o Torus
v 1.030000 0.000000 0.000000
v 0.920000 0.190526 0.000000
v 0.700000 0.190526 0.000000
v 0.590000 0.000000 0.000000
v 0.700000 -0.190526 0.000000
v 0.920000 -0.190526 0.000000
v 0.789026 0.000000 -0.662071
v 0.704761 0.190526 -0.591365
v 0.536231 0.190526 -0.449951
v 0.451966 0.000000 -0.379245
v 0.536231 -0.190526 -0.449951
v 0.704761 -0.190526 -0.591365
v 0.178858 0.000000 -1.014352
v 0.159756 0.190526 -0.906023
v 0.121554 0.190526 -0.689365
v 0.102452 0.000000 -0.581037
v 0.121554 -0.190526 -0.689365
v 0.159756 -0.190526 -0.906023
v -0.515000 0.000000 -0.892006
v -0.460000 0.190526 -0.796743
v -0.350000 0.190526 -0.606218
v -0.295000 0.000000 -0.510955
v -0.350000 -0.190526 -0.606218
v -0.460000 -0.190526 -0.796743
v -0.967883 0.000000 -0.352281
v -0.864517 0.190526 -0.314659
v -0.657785 0.190526 -0.239414
v -0.554419 0.000000 -0.201792
v -0.657785 -0.190526 -0.239414
v -0.864517 -0.190526 -0.314659
v -0.967883 0.000000 0.352281
v -0.864517 0.190526 0.314658
v -0.657785 0.190526 0.239414
v -0.554419 0.000000 0.201792
v -0.657785 -0.190526 0.239414
v -0.864517 -0.190526 0.314658
v -0.515000 0.000000 0.892006
v -0.460000 0.190526 0.796743
v -0.350000 0.190526 0.606218
v -0.295000 0.000000 0.510955
v -0.350000 -0.190526 0.606218
v -0.460000 -0.190526 0.796743
v 0.178858 0.000000 1.014352
v 0.159756 0.190526 0.906023
v 0.121554 0.190526 0.689365
v 0.102452 0.000000 0.581037
v 0.121554 -0.190526 0.689365
v 0.159756 -0.190526 0.906023
v 0.789026 0.000000 0.662071
v 0.704761 0.190526 0.591365
v 0.536231 0.190526 0.449951
v 0.451966 0.000000 0.379245
v 0.536231 -0.190526 0.449951
v 0.704761 -0.190526 0.591365
vn 0.8260 0.4769 -0.3006
vn -0.0000 1.0000 -0.0000
vn -0.8260 0.4769 0.3006
vn -0.8260 -0.4769 0.3006
vn -0.0000 -1.0000 -0.0000
vn 0.8260 -0.4769 -0.3006
vn 0.4395 0.4769 -0.7612
vn -0.4395 0.4769 0.7612
vn -0.4395 -0.4769 0.7612
vn 0.4395 -0.4769 -0.7612
vn -0.1526 0.4769 -0.8656
vn 0.1526 0.4769 0.8656
vn 0.1526 -0.4769 0.8656
vn -0.1526 -0.4769 -0.8656
vn -0.6733 0.4769 -0.5650
vn 0.6733 0.4769 0.5650
vn 0.6733 -0.4769 0.5650
vn -0.6733 -0.4769 -0.5650
vn -0.8790 0.4769 -0.0000
vn 0.8790 0.4769 -0.0000
vn 0.8790 -0.4769 -0.0000
vn -0.8790 -0.4769 -0.0000
vn -0.6733 0.4769 0.5650
vn 0.6733 0.4769 -0.5650
vn 0.6733 -0.4769 -0.5650
vn -0.6733 -0.4769 0.5650
vn -0.1526 0.4769 0.8656
vn 0.1526 0.4769 -0.8656
vn 0.1526 -0.4769 -0.8656
vn -0.1526 -0.4769 0.8656
vn 0.4395 0.4769 0.7612
vn -0.4395 0.4769 -0.7612
vn -0.4395 -0.4769 -0.7612
vn 0.4395 -0.4769 0.7612
vn 0.8260 0.4769 0.3006
vn -0.8260 0.4769 -0.3006
vn -0.8260 -0.4769 -0.3006
vn 0.8260 -0.4769 0.3006
vt 0.555556 0.500000
vt 0.666667 0.500000
vt 0.666667 0.666667
vt 0.555556 0.666667
vt 0.666667 0.833333
vt 0.555556 0.833333
vt 0.666667 1.000000
vt 0.555556 1.000000
vt 0.555556 -0.000000
vt 0.666667 -0.000000
vt 0.666667 0.166667
vt 0.555556 0.166667
vt 0.666667 0.333333
vt 0.555556 0.333333
vt 0.777778 0.500000
vt 0.777778 0.666667
vt 0.777778 0.833333
vt 0.777778 1.000000
vt 0.777778 -0.000000
vt 0.777778 0.166667
vt 0.777778 0.333333
vt 0.888889 0.500000
vt 0.888889 0.666667
vt 0.888889 0.833333
vt 0.888889 1.000000
vt 0.888889 -0.000000
vt 0.888889 0.166667
vt 0.888889 0.333333
vt 1.000000 0.500000
vt 1.000000 0.666667
vt 1.000000 0.833333
vt 1.000000 1.000000
vt 1.000000 -0.000000
vt 1.000000 0.166667
vt 1.000000 0.333333
vt 0.000000 0.500000
vt 0.111111 0.500000
vt 0.111111 0.666667
vt 0.000000 0.666667
vt 0.111111 0.833333
vt 0.000000 0.833333
vt 0.111111 1.000000
vt 0.000000 1.000000
vt 0.000000 -0.000000
vt 0.111111 -0.000000
vt 0.111111 0.166667
vt 0.000000 0.166667
vt 0.111111 0.333333
vt 0.000000 0.333333
vt 0.222222 0.500000
vt 0.222222 0.666667
vt 0.222222 0.833333
vt 0.222222 1.000000
vt 0.222222 -0.000000
vt 0.222222 0.166667
vt 0.222222 0.333333
vt 0.333333 0.500000
vt 0.333333 0.666667
vt 0.333333 0.833333
vt 0.333333 1.000000
vt 0.333333 -0.000000
vt 0.333333 0.166667
vt 0.333333 0.333333
vt 0.444444 0.500000
vt 0.444444 0.666667
vt 0.444444 0.833333
vt 0.444444 1.000000
vt 0.444444 -0.000000
vt 0.444444 0.166667
vt 0.444444 0.333333
s 0
f 1/1/1 7/2/1 8/3/1 2/4/1
f 2/4/2 8/3/2 9/5/2 3/6/2
f 3/6/3 9/5/3 10/7/3 4/8/3
f 4/9/4 10/10/4 11/11/4 5/12/4
f 5/12/5 11/11/5 12/13/5 6/14/5
f 6/14/6 12/13/6 7/2/6 1/1/6
f 7/2/7 13/15/7 14/16/7 8/3/7
f 8/3/2 14/16/2 15/17/2 9/5/2
f 9/5/8 15/17/8 16/18/8 10/7/8
f 10/10/9 16/19/9 17/20/9 11/11/9
f 11/11/5 17/20/5 18/21/5 12/13/5
f 12/13/10 18/21/10 13/15/10 7/2/10
f 13/15/11 19/22/11 20/23/11 14/16/11
f 14/16/2 20/23/2 21/24/2 15/17/2
f 15/17/12 21/24/12 22/25/12 16/18/12
f 16/19/13 22/26/13 23/27/13 17/20/13
f 17/20/5 23/27/5 24/28/5 18/21/5
f 18/21/14 24/28/14 19/22/14 13/15/14
f 19/22/15 25/29/15 26/30/15 20/23/15
f 20/23/2 26/30/2 27/31/2 21/24/2
f 21/24/16 27/31/16 28/32/16 22/25/16
f 22/26/17 28/33/17 29/34/17 23/27/17
f 23/27/5 29/34/5 30/35/5 24/28/5
f 24/28/18 30/35/18 25/29/18 19/22/18
f 25/36/19 31/37/19 32/38/19 26/39/19
f 26/39/2 32/38/2 33/40/2 27/41/2
f 27/41/20 33/40/20 34/42/20 28/43/20
f 28/44/21 34/45/21 35/46/21 29/47/21
f 29/47/5 35/46/5 36/48/5 30/49/5
f 30/49/22 36/48/22 31/37/22 25/36/22
f 31/37/23 37/50/23 38/51/23 32/38/23
f 32/38/2 38/51/2 39/52/2 33/40/2
f 33/40/24 39/52/24 40/53/24 34/42/24
f 34/45/25 40/54/25 41/55/25 35/46/25
f 35/46/5 41/55/5 42/56/5 36/48/5
f 36/48/26 42/56/26 37/50/26 31/37/26
f 37/50/27 43/57/27 44/58/27 38/51/27
f 38/51/2 44/58/2 45/59/2 39/52/2
f 39/52/28 45/59/28 46/60/28 40/53/28
f 40/54/29 46/61/29 47/62/29 41/55/29
f 41/55/5 47/62/5 48/63/5 42/56/5
f 42/56/30 48/63/30 43/57/30 37/50/30
f 43/57/31 49/64/31 50/65/31 44/58/31
f 44/58/2 50/65/2 51/66/2 45/59/2
f 45/59/32 51/66/32 52/67/32 46/60/32
f 46/61/33 52/68/33 53/69/33 47/62/33
f 47/62/5 53/69/5 54/70/5 48/63/5
f 48/63/34 54/70/34 49/64/34 43/57/34
f 49/64/35 1/1/35 2/4/35 50/65/35
f 50/65/2 2/4/2 3/6/2 51/66/2
f 51/66/36 3/6/36 4/8/36 52/67/36
f 52/68/37 4/9/37 5/12/37 53/69/37
f 53/69/5 5/12/5 6/14/5 54/70/5
f 54/70/38 6/14/38 1/1/38 49/64/38
